<svg xmlns="http://www.w3.org/2000/svg" height="48" viewBox="0 -960 960 960" width="48"><path d="M160-240v-480 188-28 320Zm268 80H160q-33 0-56.5-23.5T80-240v-480q0-33 23.5-56.5T160-800h240l80 80h320q33 0 56.5 23.5T880-640v165q-17-18-37-32t-43-25v-108H447l-80-80H160v480h243q3 21 9.5 41t15.5 39Zm393.5-261.5Q880-363 880-280t-58.5 141.5Q763-80 680-80t-141.5-58.5Q480-197 480-280t58.5-141.5Q597-480 680-480t141.5 58.5ZM660-160h40v-160h-40v160Zm34-206q6-6 6-14t-6-14q-6-6-14-6t-14 6q-6 6-6 14t6 14q6 6 14 6t14-6Z"/></svg>
