<svg xmlns="http://www.w3.org/2000/svg" height="48" viewBox="0 -960 960 960" width="48"><path d="m80-520 200-360 200 360H80Zm87 353q-47-47-47-113 0-67 47-113.5T280-440q66 0 113 47t47 113q0 66-47 113t-113 47q-66 0-113-47Zm169.5-56.5Q360-247 360-280t-23.5-56.5Q313-360 280-360t-56.5 23.5Q200-313 200-280t23.5 56.5Q247-200 280-200t56.5-23.5ZM216-600h128l-64-115-64 115Zm304 480v-320h320v320H520Zm80-80h160v-160H600v160Zm80-320q-57-48-95.5-81T523-659q-23-25-33-47t-10-47q0-45 31.5-76t78.5-31q27 0 50.5 12.5T680-813q16-22 39.5-34.5T770-860q47 0 78.5 31t31.5 76q0 25-10 47t-33 47q-23 25-61.5 58T680-520Zm0-105q72-60 96-85t24-41q0-13-7.5-21t-20.5-8q-10 0-19.5 5.5T729-755l-49 47-49-47q-14-14-23.5-19.5T588-780q-13 0-20.5 8t-7.5 21q0 16 24 41t96 85Zm0-78Zm-400 45Zm0 378Zm400 0Z"/></svg>
