<svg xmlns="http://www.w3.org/2000/svg" height="48" viewBox="0 -960 960 960" width="48"><path d="M280-40q-33 0-56.5-23.5T200-120v-720q0-33 23.5-56.5T280-920h400q33 0 56.5 23.5T760-840v124q18 7 29 22t11 34v80q0 19-11 34t-29 22v404q0 33-23.5 56.5T680-40H280Zm0-80h400v-720H280v720Zm0 0v-720 720Zm80-200h240q17 0 28.5-11.5T640-360v-80q-17 0-28.5-11.5T600-480q0-17 11.5-28.5T640-520v-80q0-17-11.5-28.5T600-640H360q-17 0-28.5 11.5T320-600v80q17 0 28.5 11.5T360-480q0 17-11.5 28.5T320-440v80q0 17 11.5 28.5T360-320Zm106-66q-6-6-6-14t6-14q6-6 14-6t14 6q6 6 6 14t-6 14q-6 6-14 6t-14-6Zm0-80q-6-6-6-14t6-14q6-6 14-6t14 6q6 6 6 14t-6 14q-6 6-14 6t-14-6Zm0-80q-6-6-6-14t6-14q6-6 14-6t14 6q6 6 6 14t-6 14q-6 6-14 6t-14-6Z"/></svg>
